<svg width="835.860840" height="145.000000" viewBox="0 0 835.861 145" fill="none" xmlns="http://www.w3.org/2000/svg" xmlns:xlink="http://www.w3.org/1999/xlink">
	<desc>
			Created with Pixso.
	</desc>
	<defs/>
	<path id="Vector 228" d="M0 85.72L181.67 85.72C205.91 85.72 229.84 80.28 251.7 69.79L263.71 62.36C267.14 60.24 270.8 58.5 274.61 57.17C276.88 56.38 279.38 56.5 281.56 57.52L281.97 57.71C283.99 58.64 285.53 60.35 286.26 62.44C287.68 66.48 285.5 70.9 281.44 72.24C279.91 72.75 278.26 72.76 276.72 72.28L273.94 71.4C270.65 70.35 267.76 68.31 265.67 65.55L263.78 63.03C260.76 59.03 259.13 54.15 259.13 49.13C259.13 46.96 259.87 44.85 261.23 43.16C263.37 40.49 266.78 39.18 270.16 39.71L282.42 41.65C284.22 41.94 285.98 42.38 287.7 42.97L289.38 43.55C293.63 45.02 298.09 45.77 302.58 45.77C308.11 45.77 313.17 42.7 315.72 37.79C317.79 33.79 317.93 29.06 316.09 24.94L314.65 21.71C312.66 17.25 309.24 13.57 304.94 11.25L304.5 11.01C301.9 9.61 298.85 9.32 296.03 10.21C293.21 11.09 290.87 13.09 289.54 15.73L288.18 18.44C286.21 22.37 285.73 26.87 286.83 31.12L288.83 38.85C290.68 47.41 293.88 55.63 298.33 63.18L299.51 65.17C304.41 74.02 310.99 81.83 318.86 88.18L319.67 88.83C324.13 92.42 329.27 95.07 334.79 96.61C338.72 97.71 342.93 96.34 345.45 93.13C347.98 89.91 348.32 85.48 346.31 81.91L343.13 76.3C341.91 74.14 340.29 72.22 338.36 70.66L330.1 63.98C327.68 62.03 324.88 60.58 321.89 59.75C315.35 57.92 308.35 59.09 302.76 62.93L299.51 65.17M299.51 65.17L293.35 73.7C290.35 77.85 287.87 82.36 285.96 87.11L282.52 95.65C281.79 97.48 281.41 99.45 281.41 101.43C281.41 105.02 283.26 108.36 286.31 110.26C287.96 111.28 289.86 111.82 291.8 111.82L293.67 111.82C296.29 111.82 298.87 111.22 301.22 110.05L304.24 108.55C306.03 107.66 307.91 106.94 309.84 106.4L311.39 105.97C313.98 105.26 316.65 104.9 319.34 104.9C322.8 104.9 326.24 105.5 329.49 106.68L336.42 109.18C338.72 110.01 341.14 110.44 343.58 110.44C347.36 110.44 350.88 108.53 352.94 105.36C354.12 103.55 354.74 101.44 354.74 99.28L354.74 85.03L354.74 77.4C354.74 72.36 355.53 67.35 357.08 62.55C358.28 58.84 360.53 55.55 363.56 53.09C367.16 50.15 371.67 48.55 376.32 48.55L377.6 48.55C381.01 48.55 384.2 50.25 386.1 53.08C387.71 55.49 388.22 58.46 387.52 61.27L387.08 63.02C386.01 67.3 383.02 70.83 378.99 72.62L376.63 73.66C374.13 74.76 371.44 75.34 368.71 75.34L368.1 75.34C363.34 75.34 358.71 73.82 354.86 71.02L350.76 68.02C350.02 67.48 349.34 66.84 348.75 66.13C346.15 62.98 345.5 58.66 347.04 54.88L348.77 50.66C349.35 49.25 350.09 47.93 350.98 46.71L356.54 39.1C359.29 35.34 360.78 30.79 360.78 26.12C360.78 22.94 360.09 19.8 358.76 16.91L358.27 15.86C356.66 12.34 353.34 9.92 349.5 9.44C346.34 9.05 343.16 10.02 340.76 12.12L337.65 14.85C334.57 17.54 332.38 21.1 331.35 25.06L331.24 25.48C330.22 29.39 330.3 33.5 331.49 37.36L331.72 38.13C332.49 40.64 334.31 42.69 336.7 43.75C339.55 45.01 342.85 44.71 345.43 42.96L351.49 38.85L362.69 31.66C364.8 30.3 367.14 29.33 369.59 28.79C375.23 27.54 381.13 28.64 385.95 31.84L386.29 32.07C388.2 33.34 389.91 34.91 391.35 36.71L412.43 63.1L420.66 72.47C428.21 81.07 438.34 86.99 449.54 89.34C452.7 90.01 455.91 90.38 459.13 90.46L489.78 91.2L510.77 91.71L604 90.34" stroke="#0C0C0C" stroke-opacity="1.000000" stroke-width="1.000000"/>
	<ellipse id="Ellipse 43" rx="7.500000" ry="10.000000" transform="matrix(-0.247244 -0.968953 0.968953 -0.247244 278.544 68.2226)" fill="#20DAB8" fill-opacity="0.340000"/>
	<ellipse id="Ellipse 44" cx="302.500000" cy="27.482910" rx="12.500000" ry="16.000000" fill="#20DAB8" fill-opacity="0.340000"/>
	<ellipse id="Ellipse 45" cx="346.500000" cy="24.982910" rx="15.500000" ry="16.500000" fill="#20DAB8" fill-opacity="0.340000"/>
	<ellipse id="Ellipse 46" rx="11.500000" ry="13.500000" transform="matrix(0.51304 0.858364 -0.858364 0.51304 369.488 60.2802)" fill="#20DAB8" fill-opacity="0.340000"/>
</svg>
