<svg width="170.000000" height="170.000000" viewBox="0 0 170 170" fill="none" xmlns="http://www.w3.org/2000/svg" xmlns:xlink="http://www.w3.org/1999/xlink">
	<desc>
			Created with Pixso.
	</desc>
	<defs/>
	<path id="Vector" d="M122.8 169.9C123.49 169.85 124.17 169.81 124.86 169.74C128.7 169.35 132.22 167.98 135.35 165.52C140.75 161.25 144.2 155.58 145.57 148.46C146.07 145.79 146.24 143.06 146.07 140.34C145.89 137.16 145.32 134.02 144.38 131C142.89 126.15 140.64 121.75 137.79 117.69C135.65 114.65 133.23 111.86 130.55 109.36C128.07 107 125.76 104.42 123.65 101.66C120.97 98.19 118.55 94.52 116.15 90.82C114.04 87.55 111.96 84.26 109.71 81.1C108.04 78.7 106.22 76.43 104.26 74.31C101.77 71.69 99.03 69.48 95.8 68.03C93.4 66.96 90.84 66.38 88.24 66.32C85.29 66.24 82.34 66.58 79.47 67.33C75.14 68.49 71.17 70.88 67.96 74.25C65.7 76.59 63.8 79.24 62.03 82C60.15 84.94 58.43 87.98 56.65 90.99C54.64 94.37 52.57 97.71 50.26 100.86C47.96 104 45.41 106.9 42.64 109.55C39.28 112.73 36.3 116.35 33.76 120.33C31.58 123.74 29.84 127.46 28.6 131.38C27.62 134.44 27.05 137.63 26.88 140.86C26.64 145.79 27.43 150.52 29.48 154.96C31.39 159.07 34.14 162.38 37.6 165.01C40.14 166.94 42.88 168.41 45.9 169.22C46.97 169.52 48.06 169.72 49.16 169.84C49.31 169.85 49.46 169.88 49.61 169.91C49.75 170 49.9 169.93 50.06 169.95C50.18 169.97 50.31 169.91 50.43 170L53.25 170C53.36 169.91 53.48 169.97 53.6 169.95L54.2 169.95C56.6 169.87 58.93 169.32 61.25 168.73C65.19 167.73 69.05 166.42 72.96 165.33C76.13 164.43 79.34 163.77 82.59 163.34C84.84 163.08 87.1 163 89.36 163.11C91.16 163.17 92.96 163.48 94.73 163.84C98.23 164.56 101.66 165.58 105.1 166.6C108.73 167.69 112.36 168.77 116.08 169.44C117.59 169.7 119.11 169.93 120.65 169.92C120.96 169.91 121.28 169.96 121.6 169.95C122 169.93 122.4 170.01 122.8 169.91L122.8 169.9ZM53.41 0.07C48.35 0.73 44.48 3.54 41.52 7.96C39.5 10.99 38.23 14.4 37.44 18.04C36.77 21.16 36.49 24.36 36.6 27.56C36.77 33.41 38.07 39.15 40.41 44.42C42.01 48.1 44.18 51.44 46.82 54.31C49.21 56.86 51.92 58.9 55.07 60.17C57.29 61.06 59.57 61.5 61.93 61.35C66.01 61.09 69.49 59.32 72.4 56.23C74.89 53.59 76.58 50.39 77.75 46.86C78.56 44.4 79.1 41.84 79.35 39.23C79.54 37.46 79.61 35.66 79.56 33.87C79.44 29.65 78.74 25.55 77.48 21.56C76.19 17.33 74.22 13.38 71.67 9.89C69.5 6.95 66.96 4.46 63.91 2.62C61.69 1.26 59.25 0.39 56.73 0.07C56.65 0.02 56.57 0.05 56.49 0.04L56.25 0.04C56.13 0.02 56 0.08 55.9 0L54.24 0C54.13 0.09 54.01 0.02 53.9 0.04L53.65 0.04C53.57 0.04 53.49 0.02 53.41 0.07ZM169.84 65.24C169.76 63.56 169.49 61.91 169.08 60.28C168.29 57.12 167.01 54.23 165 51.77C162.84 49.05 159.91 47.2 156.68 46.51C153.98 45.93 151.33 46.18 148.71 47.06C145.71 48.07 143.05 49.79 140.69 52.03C137.03 55.5 134.39 59.76 132.57 64.64C131.14 68.43 130.37 72.48 130.31 76.57C130.25 79.1 130.51 81.62 131.08 84.07C131.85 87.35 133.15 90.34 135.22 92.9C137.49 95.79 140.64 97.7 144.1 98.28C146.7 98.74 149.26 98.43 151.76 97.55C155.13 96.36 158.02 94.31 160.56 91.66C163.02 89.09 165.04 86.08 166.55 82.76C168.06 79.51 169.09 76.02 169.59 72.42C169.68 71.78 169.75 71.14 169.83 70.5C169.89 70.21 169.87 69.91 169.93 69.62C169.96 69.5 169.95 69.38 169.95 69.26C169.97 69.11 169.91 68.94 170 68.79L170 66.44C169.86 66.22 169.93 65.98 169.91 65.75C169.9 65.58 169.94 65.4 169.84 65.24ZM134.3 27.59C134.28 22.92 133.67 18.72 132.24 14.67C131.17 11.61 129.68 8.82 127.62 6.41C125.4 3.81 122.76 1.95 119.58 1.07C116.4 0.19 113.27 0.44 110.2 1.65C107.49 2.73 105.12 4.41 103.02 6.55C99.67 9.94 97.27 14.05 95.56 18.65C94.48 21.57 93.73 24.59 93.3 27.71C93.06 29.48 92.92 31.26 92.89 33.05C92.84 35.31 92.99 37.56 93.32 39.79C94.03 44.44 95.48 48.78 98.07 52.61C99.63 54.99 101.67 56.96 104.02 58.38C106.64 59.95 109.62 60.64 112.6 60.37C115.34 60.14 117.87 59.16 120.22 57.64C123.3 55.65 125.78 52.98 127.86 49.83C130.28 46.1 132.04 41.92 133.07 37.5C133.66 35.07 134.03 32.59 134.2 30.08C134.28 29.25 134.31 28.42 134.3 27.59ZM0 67.98L0 68.52C0.19 73.02 1.29 77.25 3.07 81.28C4.45 84.43 6.28 87.33 8.47 89.88C11.31 93.16 14.61 95.72 18.53 97.26C20.85 98.2 23.32 98.61 25.79 98.48C29.38 98.31 32.8 96.74 35.41 94.05C37.65 91.78 39.12 89 40.05 85.86C40.88 83.06 41.24 80.13 41.14 77.19C40.96 70.7 39.08 64.79 35.81 59.39C34.72 57.57 33.45 55.87 32.03 54.33C29.12 51.16 25.79 48.73 21.84 47.35C19.62 46.55 17.28 46.23 14.96 46.41C11.45 46.66 8.14 48.25 5.61 50.9C3.24 53.33 1.75 56.34 0.85 59.72C0.35 61.59 0.05 63.5 0 65.44L0 65.99C0.01 66.65 0.02 67.31 0 67.98Z" fill="#D5D1F0" fill-opacity="1.000000" fill-rule="evenodd"/>
</svg>
